# xmcd
#
# Track frame offsets:
#	150
#	14474
#	28914
#	47593
#	62918
#	80853
#	101856
#	114374
#	129850
#	146617
#	160060
#	174702
#	192088
#	209860
#	226547
#	244615
#	258109
#
# Disc length: 3652 seconds
#
# Revision: 0
# Processed by: cddbd v1.5.1PL0 Copyright (c) Steve Scherf et al.
# Submitted via: AudioConverter v5.0 Copyright (c) AC Productions Ltd
#
DISCID=e90e4211
DTITLE=Various Artist - Country's Hits Volume Two
DYEAR=1900
DGENRE=Country
TTITLE0=The Way You Love Me
TTITLE1=Katie Wants A Fast One
TTITLE2=Who Am I
TTITLE3=Lonely And Gone
TTITLE4=Just Another Day In Paradise
TTITLE5=That Don't Impress Me Much
TTITLE6=Just Talkin About Tonight
TTITLE7=Just What I Do
TTITLE8=What Mattered Most
TTITLE9=Kiss This
TTITLE10=He's Got You
TTITLE11=Anyone Else
TTITLE12=Rodeo
TTITLE13=Living And Living Well
TTITLE14=I Lost You
TTITLE15=I Love You
TTITLE16=That When I Love You
EXTD=
EXTT0=
EXTT1=
EXTT2=
EXTT3=
EXTT4=
EXTT5=
EXTT6=
EXTT7=
EXTT8=
EXTT9=
EXTT10=
EXTT11=
EXTT12=
EXTT13=
EXTT14=
EXTT15=
EXTT16=
PLAYORDER=
